<svg version="1.1" id="Layer_1" xmlns="http://www.w3.org/2000/svg" xmlns:xlink="http://www.w3.org/1999/xlink" x="0px" y="0px"
	 width="100%" viewBox="0 0 8000 4500" enable-background="new 0 0 8000 4500" xml:space="preserve">
<path fill="#FFFFFF" opacity="1.000000" stroke="none" 
	d="
M5884.000000,4504.000000 
	C3922.667236,4504.000000 1963.334473,4504.000000 4.001314,4504.000000 
	C4.000876,3004.000977 4.000876,1504.002075 4.000438,4.002320 
	C2670.664795,4.001547 5337.329590,4.001547 8003.996094,4.000773 
	C8003.997070,1503.997681 8003.997070,3003.995361 8003.998535,4503.996582 
	C7298.000000,4504.000000 6592.000000,4504.000000 5884.000000,4504.000000 
M4721.788086,3728.211670 
	C4794.845703,3801.268799 4867.903320,3874.326660 4940.961914,3947.382812 
	C4944.733398,3951.154053 4948.510254,3954.918701 4952.286133,3958.684570 
	C4979.516113,3985.839844 5028.157227,3982.576416 5050.639160,3946.062256 
	C5052.733398,3942.661133 5054.574707,3939.104492 5056.539551,3935.623779 
	C5130.567383,3804.492676 5204.614746,3673.372070 5278.620117,3542.228516 
	C5359.829590,3398.318604 5441.010254,3254.392822 5522.164551,3110.451660 
	C5527.398438,3101.168213 5532.652832,3091.867432 5537.275879,3082.274902 
	C5544.915039,3066.424561 5544.936035,3050.065674 5538.699219,3033.764404 
	C5534.572754,3022.979004 5527.216797,3014.377197 5519.123535,3006.305664 
	C5485.609863,2972.883301 5452.170410,2939.386719 5418.709961,2905.911377 
	C5414.939941,2902.140137 5410.986816,2898.522217 5407.496094,2894.505615 
	C5377.789062,2860.326904 5393.510742,2807.442627 5437.314453,2795.343262 
	C5446.127930,2792.908691 5455.706543,2792.440430 5464.933594,2792.428223 
	C5597.593262,2792.250732 5730.252930,2792.307373 5862.912598,2792.304932 
	C5868.912109,2792.304932 5874.918457,2792.464111 5880.910156,2792.236572 
	C5911.457031,2791.075928 5933.264648,2772.742188 5941.106445,2743.071045 
	C5944.741211,2729.318359 5941.463867,2716.700684 5937.883789,2703.860107 
	C5909.631836,2602.532959 5881.298828,2501.228027 5853.087402,2399.889648 
	C5802.020508,2216.449463 5751.026855,2032.989380 5699.988770,1849.541382 
	C5692.136719,1821.319214 5684.200195,1793.120483 5676.326660,1764.904297 
	C5670.521484,1744.100708 5657.285156,1729.753540 5637.123535,1722.844971 
	C5628.543457,1719.905518 5618.863770,1719.246460 5609.672363,1719.179565 
	C5562.344238,1718.834717 5515.011719,1719.019775 5467.681152,1719.016846 
	C5463.014648,1719.016479 5458.324707,1719.297729 5453.685547,1718.935669 
	C5426.777832,1716.836792 5406.713867,1704.352783 5396.601562,1678.826538 
	C5386.740723,1653.935059 5392.860352,1631.794189 5410.773926,1612.536377 
	C5414.403809,1608.633789 5418.288574,1604.968384 5422.059570,1601.197144 
	C5515.392090,1507.863403 5608.725098,1414.530518 5702.055664,1321.194946 
	C5705.827148,1317.423706 5709.520508,1313.574463 5713.335449,1309.848877 
	C5733.176270,1290.472534 5735.450684,1250.336914 5715.228027,1227.309937 
	C5709.636230,1220.942993 5702.320312,1215.772461 5695.040527,1211.274658 
	C5681.447754,1202.876221 5667.309082,1195.359985 5653.385254,1187.498413 
	C5527.479004,1116.407593 5401.582031,1045.300903 5275.658691,974.240845 
	C5161.923828,910.058960 5048.159180,845.930298 4934.407715,781.778381 
	C4904.228516,764.758057 4873.987305,747.846985 4843.894531,730.674866 
	C4826.795898,720.917969 4809.079102,718.080994 4790.093750,724.074280 
	C4778.936035,727.596497 4770.178223,734.463562 4762.071289,742.608276 
	C4728.682129,776.154236 4695.170410,809.578613 4661.696777,843.040955 
	C4657.453613,847.282410 4653.380859,851.723633 4648.873047,855.665466 
	C4609.397949,890.185913 4556.124023,864.906799 4547.540039,824.432434 
	C4545.763672,816.056763 4545.094727,807.300049 4545.085449,798.717590 
	C4544.937012,665.391479 4544.984863,532.065186 4544.970215,398.738892 
	C4544.969238,392.074677 4544.835449,385.410004 4544.718262,378.746338 
	C4544.296387,354.675507 4523.732910,330.270264 4499.578613,323.635376 
	C4485.264160,319.703369 4471.886230,321.648590 4458.310059,325.429443 
	C4328.755371,361.510498 4199.219238,397.660370 4069.667725,433.753571 
	C3908.044922,478.781708 3746.408691,523.762329 3584.788330,568.798401 
	C3562.339844,575.053772 3539.908691,581.377197 3517.538818,587.907043 
	C3494.535400,594.621826 3479.743896,609.830017 3473.642334,632.867493 
	C3471.801514,639.817749 3471.823242,647.385376 3471.800049,654.672729 
	C3471.649170,702.003052 3471.723877,749.334167 3471.716064,796.664978 
	C3471.715088,801.997559 3472.068848,807.369446 3471.560547,812.656006 
	C3469.043945,838.824951 3456.170654,857.916321 3431.413818,867.492188 
	C3407.358643,876.796509 3385.630371,871.775330 3366.907471,854.049988 
	C3362.552002,849.926636 3358.389893,845.598633 3354.147461,841.356262 
	C3260.812256,748.025208 3167.510010,654.660950 3074.075684,561.429199 
	C3067.514404,554.882202 3060.575684,548.365417 3052.788574,543.459717 
	C3028.570557,528.202881 2995.439697,532.516174 2975.737061,553.302917 
	C2970.313965,559.024414 2965.943604,565.919800 2961.935791,572.771362 
	C2952.518311,588.872192 2943.664062,605.301575 2934.489258,621.545593 
	C2862.398193,749.181274 2790.248291,876.783508 2718.191162,1004.438171 
	C2654.323730,1117.584473 2590.546631,1230.781982 2526.742432,1343.963989 
	C2511.691162,1370.663574 2496.182129,1397.121704 2481.817383,1424.186646 
	C2468.490479,1449.296021 2472.873535,1477.407837 2491.976318,1498.300903 
	C2495.122314,1501.741699 2498.525879,1504.947754 2501.824951,1508.247559 
	C2534.347168,1540.775757 2566.875977,1573.297363 2599.391602,1605.832153 
	C2603.160400,1609.603149 2607.154785,1613.198730 2610.547363,1617.288086 
	C2639.212646,1651.840698 2622.006348,1705.309692 2578.443848,1716.181030 
	C2569.536865,1718.403931 2560.009766,1718.892944 2550.766602,1718.904541 
	C2417.440430,1719.070557 2284.114258,1719.013428 2150.787842,1719.032593 
	C2144.124756,1719.033447 2137.433594,1718.891235 2130.803711,1719.419189 
	C2109.211426,1721.138794 2093.294922,1731.933716 2082.611084,1750.573975 
	C2072.648193,1767.956665 2073.299561,1786.213379 2078.472168,1804.798584 
	C2089.183350,1843.283569 2099.828613,1881.786865 2110.565674,1920.264771 
	C2146.713867,2049.806396 2182.941650,2179.325928 2219.042480,2308.881104 
	C2259.252930,2453.183350 2299.312500,2597.527832 2339.541504,2741.825195 
	C2349.025146,2775.841553 2369.865479,2791.895508 2404.768555,2792.255615 
	C2428.764893,2792.503418 2452.765381,2792.303467 2476.764160,2792.307129 
	C2505.429199,2792.311523 2534.104004,2791.860352 2562.756592,2792.461182 
	C2589.156250,2793.014648 2608.742920,2805.635010 2619.266357,2829.919922 
	C2629.801270,2854.231201 2625.343018,2876.848389 2607.808350,2896.721436 
	C2603.845703,2901.212891 2599.430176,2905.307129 2595.187988,2909.549072 
	C2510.815674,2993.930664 2426.437256,3078.306152 2342.061768,3162.684814 
	C2330.277344,3174.469238 2318.785889,3186.563721 2306.667725,3197.993896 
	C2275.876465,3227.038086 2283.598145,3279.387695 2319.814697,3298.701660 
	C2322.752441,3300.268555 2325.549805,3302.095947 2328.451416,3303.732666 
	C2486.298340,3392.781250 2644.156494,3481.809326 2801.997559,3570.867920 
	C2903.550781,3628.167725 3005.072998,3685.522217 3106.623291,3742.827637 
	C3129.833984,3755.925537 3152.878174,3769.343506 3176.405029,3781.850830 
	C3202.227295,3795.578613 3230.936523,3791.151367 3252.038574,3771.176270 
	C3255.426270,3767.969482 3258.656250,3764.595947 3261.956299,3761.296631 
	C3294.483643,3728.773682 3326.990234,3696.229980 3359.562012,3663.751465 
	C3363.798828,3659.527100 3368.054199,3655.212158 3372.837158,3651.661865 
	C3406.372803,3626.772217 3454.064941,3641.551025 3468.056885,3680.858398 
	C3471.496582,3690.521973 3471.760010,3700.370605 3471.756104,3710.404541 
	C3471.701416,3845.064209 3471.714600,3979.723633 3471.737305,4114.383301 
	C3471.738525,4121.045898 3471.525391,4127.753906 3472.190918,4134.362793 
	C3475.187012,4164.121094 3499.477783,4187.523926 3529.315674,4188.650879 
	C3538.480469,4188.996582 3547.951172,4187.721680 3556.911133,4185.613281 
	C3573.750732,4181.649902 3590.322266,4176.547363 3607.001465,4171.903320 
	C3774.401367,4125.295898 3941.798096,4078.678223 4109.199707,4032.077393 
	C4215.675781,4002.436768 4322.161133,3972.830322 4428.636230,3943.186523 
	C4451.723633,3936.758545 4474.718750,3929.985840 4497.876465,3923.824951 
	C4525.872559,3916.376953 4546.261719,3890.970459 4544.992188,3862.036865 
	C4544.788086,3857.379639 4544.979980,3852.705322 4544.980469,3848.038818 
	C4544.981934,3803.374512 4544.976074,3758.710205 4544.988281,3714.045898 
	C4544.989746,3708.713867 4544.719238,3703.349121 4545.195312,3698.055176 
	C4548.901855,3656.844482 4583.787109,3637.272461 4611.250977,3639.520508 
	C4627.497070,3640.850342 4640.656250,3647.106201 4651.902344,3658.340088 
	C4674.540039,3680.954590 4697.160156,3703.586914 4721.788086,3728.211670 
z"/>
<path fill="#27B7FF" opacity="1.000000" stroke="none" 
	d="
M4720.788086,3727.211670 
	C4697.160156,3703.586914 4674.540039,3680.954590 4651.902344,3658.340088 
	C4640.656250,3647.106201 4627.497070,3640.850342 4611.250977,3639.520508 
	C4583.787109,3637.272461 4548.901855,3656.844482 4545.195312,3698.055176 
	C4544.719238,3703.349121 4544.989746,3708.713867 4544.988281,3714.045898 
	C4544.976074,3758.710205 4544.981934,3803.374512 4544.980469,3848.038818 
	C4544.979980,3852.705322 4544.788086,3857.379639 4544.992188,3862.036865 
	C4546.261719,3890.970459 4525.872559,3916.376953 4497.876465,3923.824951 
	C4474.718750,3929.985840 4451.723633,3936.758545 4428.636230,3943.186523 
	C4322.161133,3972.830322 4215.675781,4002.436768 4109.199707,4032.077393 
	C3941.798096,4078.678223 3774.401367,4125.295898 3607.001465,4171.903320 
	C3590.322266,4176.547363 3573.750732,4181.649902 3556.911133,4185.613281 
	C3547.951172,4187.721680 3538.480469,4188.996582 3529.315674,4188.650879 
	C3499.477783,4187.523926 3475.187012,4164.121094 3472.190918,4134.362793 
	C3471.525391,4127.753906 3471.738525,4121.045898 3471.737305,4114.383301 
	C3471.714600,3979.723633 3471.701416,3845.064209 3471.756104,3710.404541 
	C3471.760010,3700.370605 3471.496582,3690.521973 3468.056885,3680.858398 
	C3454.064941,3641.551025 3406.372803,3626.772217 3372.837158,3651.661865 
	C3368.054199,3655.212158 3363.798828,3659.527100 3359.562012,3663.751465 
	C3326.990234,3696.229980 3294.483643,3728.773682 3261.956299,3761.296631 
	C3258.656250,3764.595947 3255.426270,3767.969482 3252.038574,3771.176270 
	C3230.936523,3791.151367 3202.227295,3795.578613 3176.405029,3781.850830 
	C3152.878174,3769.343506 3129.833984,3755.925537 3106.623291,3742.827637 
	C3005.072998,3685.522217 2903.550781,3628.167725 2801.997559,3570.867920 
	C2644.156494,3481.809326 2486.298340,3392.781250 2328.451416,3303.732666 
	C2325.549805,3302.095947 2322.752441,3300.268555 2319.814697,3298.701660 
	C2283.598145,3279.387695 2275.876465,3227.038086 2306.667725,3197.993896 
	C2318.785889,3186.563721 2330.277344,3174.469238 2342.061768,3162.684814 
	C2426.437256,3078.306152 2510.815674,2993.930664 2595.187988,2909.549072 
	C2599.430176,2905.307129 2603.845703,2901.212891 2607.808350,2896.721436 
	C2625.343018,2876.848389 2629.801270,2854.231201 2619.266357,2829.919922 
	C2608.742920,2805.635010 2589.156250,2793.014648 2562.756592,2792.461182 
	C2534.104004,2791.860352 2505.429199,2792.311523 2476.764160,2792.307129 
	C2452.765381,2792.303467 2428.764893,2792.503418 2404.768555,2792.255615 
	C2369.865479,2791.895508 2349.025146,2775.841553 2339.541504,2741.825195 
	C2299.312500,2597.527832 2259.252930,2453.183350 2219.042480,2308.881104 
	C2182.941650,2179.325928 2146.713867,2049.806396 2110.565674,1920.264771 
	C2099.828613,1881.786865 2089.183350,1843.283569 2078.472168,1804.798584 
	C2073.299561,1786.213379 2072.648193,1767.956665 2082.611084,1750.573975 
	C2093.294922,1731.933716 2109.211426,1721.138794 2130.803711,1719.419189 
	C2137.433594,1718.891235 2144.124756,1719.033447 2150.787842,1719.032593 
	C2284.114258,1719.013428 2417.440430,1719.070557 2550.766602,1718.904541 
	C2560.009766,1718.892944 2569.536865,1718.403931 2578.443848,1716.181030 
	C2622.006348,1705.309692 2639.212646,1651.840698 2610.547363,1617.288086 
	C2607.154785,1613.198730 2603.160400,1609.603149 2599.391602,1605.832153 
	C2566.875977,1573.297363 2534.347168,1540.775757 2501.824951,1508.247559 
	C2498.525879,1504.947754 2495.122314,1501.741699 2491.976318,1498.300903 
	C2472.873535,1477.407837 2468.490479,1449.296021 2481.817383,1424.186646 
	C2496.182129,1397.121704 2511.691162,1370.663574 2526.742432,1343.963989 
	C2590.546631,1230.781982 2654.323730,1117.584473 2718.191162,1004.438171 
	C2790.248291,876.783508 2862.398193,749.181274 2934.489258,621.545593 
	C2943.664062,605.301575 2952.518311,588.872192 2961.935791,572.771362 
	C2965.943604,565.919800 2970.313965,559.024414 2975.737061,553.302917 
	C2995.439697,532.516174 3028.570557,528.202881 3052.788574,543.459717 
	C3060.575684,548.365417 3067.514404,554.882202 3074.075684,561.429199 
	C3167.510010,654.660950 3260.812256,748.025208 3354.147461,841.356262 
	C3358.389893,845.598633 3362.552002,849.926636 3366.907471,854.049988 
	C3385.630371,871.775330 3407.358643,876.796509 3431.413818,867.492188 
	C3456.170654,857.916321 3469.043945,838.824951 3471.560547,812.656006 
	C3472.068848,807.369446 3471.715088,801.997559 3471.716064,796.664978 
	C3471.723877,749.334167 3471.649170,702.003052 3471.800049,654.672729 
	C3471.823242,647.385376 3471.801514,639.817749 3473.642334,632.867493 
	C3479.743896,609.830017 3494.535400,594.621826 3517.538818,587.907043 
	C3539.908691,581.377197 3562.339844,575.053772 3584.788330,568.798401 
	C3746.408691,523.762329 3908.044922,478.781708 4069.667725,433.753571 
	C4199.219238,397.660370 4328.755371,361.510498 4458.310059,325.429443 
	C4471.886230,321.648590 4485.264160,319.703369 4499.578613,323.635376 
	C4523.732910,330.270264 4544.296387,354.675507 4544.718262,378.746338 
	C4544.835449,385.410004 4544.969238,392.074677 4544.970215,398.738892 
	C4544.984863,532.065186 4544.937012,665.391479 4545.085449,798.717590 
	C4545.094727,807.300049 4545.763672,816.056763 4547.540039,824.432434 
	C4556.124023,864.906799 4609.397949,890.185913 4648.873047,855.665466 
	C4653.380859,851.723633 4657.453613,847.282410 4661.696777,843.040955 
	C4695.170410,809.578613 4728.682129,776.154236 4762.071289,742.608276 
	C4770.178223,734.463562 4778.936035,727.596497 4790.093750,724.074280 
	C4809.079102,718.080994 4826.795898,720.917969 4843.894531,730.674866 
	C4873.987305,747.846985 4904.228516,764.758057 4934.407715,781.778381 
	C5048.159180,845.930298 5161.923828,910.058960 5275.658691,974.240845 
	C5401.582031,1045.300903 5527.479004,1116.407593 5653.385254,1187.498413 
	C5667.309082,1195.359985 5681.447754,1202.876221 5695.040527,1211.274658 
	C5702.320312,1215.772461 5709.636230,1220.942993 5715.228027,1227.309937 
	C5735.450684,1250.336914 5733.176270,1290.472534 5713.335449,1309.848877 
	C5709.520508,1313.574463 5705.827148,1317.423706 5702.055664,1321.194946 
	C5608.725098,1414.530518 5515.392090,1507.863403 5422.059570,1601.197144 
	C5418.288574,1604.968384 5414.403809,1608.633789 5410.773926,1612.536377 
	C5392.860352,1631.794189 5386.740723,1653.935059 5396.601562,1678.826538 
	C5406.713867,1704.352783 5426.777832,1716.836792 5453.685547,1718.935669 
	C5458.324707,1719.297729 5463.014648,1719.016479 5467.681152,1719.016846 
	C5515.011719,1719.019775 5562.344238,1718.834717 5609.672363,1719.179565 
	C5618.863770,1719.246460 5628.543457,1719.905518 5637.123535,1722.844971 
	C5657.285156,1729.753540 5670.521484,1744.100708 5676.326660,1764.904297 
	C5684.200195,1793.120483 5692.136719,1821.319214 5699.988770,1849.541382 
	C5751.026855,2032.989380 5802.020508,2216.449463 5853.087402,2399.889648 
	C5881.298828,2501.228027 5909.631836,2602.532959 5937.883789,2703.860107 
	C5941.463867,2716.700684 5944.741211,2729.318359 5941.106445,2743.071045 
	C5933.264648,2772.742188 5911.457031,2791.075928 5880.910156,2792.236572 
	C5874.918457,2792.464111 5868.912109,2792.304932 5862.912598,2792.304932 
	C5730.252930,2792.307373 5597.593262,2792.250732 5464.933594,2792.428223 
	C5455.706543,2792.440430 5446.127930,2792.908691 5437.314453,2795.343262 
	C5393.510742,2807.442627 5377.789062,2860.326904 5407.496094,2894.505615 
	C5410.986816,2898.522217 5414.939941,2902.140137 5418.709961,2905.911377 
	C5452.170410,2939.386719 5485.609863,2972.883301 5519.123535,3006.305664 
	C5527.216797,3014.377197 5534.572754,3022.979004 5538.699219,3033.764404 
	C5544.936035,3050.065674 5544.915039,3066.424561 5537.275879,3082.274902 
	C5532.652832,3091.867432 5527.398438,3101.168213 5522.164551,3110.451660 
	C5441.010254,3254.392822 5359.829590,3398.318604 5278.620117,3542.228516 
	C5204.614746,3673.372070 5130.567383,3804.492676 5056.539551,3935.623779 
	C5054.574707,3939.104492 5052.733398,3942.661133 5050.639160,3946.062256 
	C5028.157227,3982.576416 4979.516113,3985.839844 4952.286133,3958.684570 
	C4948.510254,3954.918701 4944.733398,3951.154053 4940.961914,3947.382812 
	C4867.903320,3874.326660 4794.845703,3801.268799 4720.788086,3727.211670 
M3764.672119,2849.329102 
	C3817.555176,2882.882812 3870.422852,2916.461182 3923.333740,2949.971191 
	C3935.152832,2957.456543 3946.740479,2965.431641 3959.097168,2971.919434 
	C3992.909912,2989.673340 4026.866455,2988.855957 4060.379395,2970.689453 
	C4066.227783,2967.519287 4071.804199,2963.834961 4077.426514,2960.262695 
	C4123.545898,2930.959717 4169.640137,2901.616943 4215.753906,2872.305176 
	C4288.850098,2825.843018 4362.061523,2779.560547 4435.021973,2732.885742 
	C4486.643555,2699.861572 4526.538574,2655.853760 4555.226074,2601.732910 
	C4582.951660,2549.427246 4595.581543,2493.303223 4595.632324,2434.422363 
	C4595.844238,2190.467041 4595.721680,1946.511841 4595.717773,1702.556641 
	C4595.717773,1697.891113 4595.853516,1693.214355 4595.571289,1688.564331 
	C4595.416016,1686.006348 4594.519531,1683.493286 4593.896484,1680.683472 
	C4585.634766,1679.291870 4577.812988,1677.844482 4569.950195,1676.670166 
	C4502.030273,1666.527222 4447.902832,1606.799072 4443.625977,1538.637695 
	C4443.426270,1535.465576 4442.532227,1532.336914 4441.954590,1529.144897 
	C4433.389160,1525.764771 4425.335449,1527.085571 4417.508789,1527.083374 
	C4148.891602,1527.008667 3880.273926,1527.021118 3611.656494,1527.021362 
	C3604.324463,1527.021362 3596.987061,1526.851929 3589.662598,1527.088623 
	C3585.154053,1527.234253 3580.665771,1528.002197 3575.490479,1528.564209 
	C3574.526367,1533.760254 3573.301025,1538.204834 3572.924316,1542.720337 
	C3567.684570,1605.560181 3519.789307,1656.939209 3466.284180,1672.107178 
	C3455.444336,1675.180176 3444.166016,1676.698853 3433.100342,1678.985107 
	C3429.413086,1679.746948 3425.758301,1680.667236 3420.979980,1681.771362 
	C3420.979980,1690.675293 3420.979736,1698.604004 3420.979736,1706.532593 
	C3420.979736,1935.157349 3420.971191,2163.781982 3420.992676,2392.406738 
	C3420.994873,2417.703125 3421.055420,2442.955811 3423.098389,2468.250000 
	C3426.967041,2516.142090 3440.310791,2561.092773 3462.718018,2603.354980 
	C3493.092773,2660.644775 3536.827637,2705.303223 3591.775879,2739.581299 
	C3648.870361,2775.198486 3705.439941,2811.656982 3764.672119,2849.329102 
z"/>
<path fill="#FFFFFF" opacity="1.000000" stroke="none" 
	d="
M3763.455566,2848.538086 
	C3705.439941,2811.656982 3648.870361,2775.198486 3591.775879,2739.581299 
	C3536.827637,2705.303223 3493.092773,2660.644775 3462.718018,2603.354980 
	C3440.310791,2561.092773 3426.967041,2516.142090 3423.098389,2468.250000 
	C3421.055420,2442.955811 3420.994873,2417.703125 3420.992676,2392.406738 
	C3420.971191,2163.781982 3420.979736,1935.157349 3420.979736,1706.532593 
	C3420.979736,1698.604004 3420.979980,1690.675293 3420.979980,1681.771362 
	C3425.758301,1680.667236 3429.413086,1679.746948 3433.100342,1678.985107 
	C3444.166016,1676.698853 3455.444336,1675.180176 3466.284180,1672.107178 
	C3519.789307,1656.939209 3567.684570,1605.560181 3572.924316,1542.720337 
	C3573.301025,1538.204834 3574.526367,1533.760254 3575.490479,1528.564209 
	C3580.665771,1528.002197 3585.154053,1527.234253 3589.662598,1527.088623 
	C3596.987061,1526.851929 3604.324463,1527.021362 3611.656494,1527.021362 
	C3880.273926,1527.021118 4148.891602,1527.008667 4417.508789,1527.083374 
	C4425.335449,1527.085571 4433.389160,1525.764771 4441.954590,1529.144897 
	C4442.532227,1532.336914 4443.426270,1535.465576 4443.625977,1538.637695 
	C4447.902832,1606.799072 4502.030273,1666.527222 4569.950195,1676.670166 
	C4577.812988,1677.844482 4585.634766,1679.291870 4593.896484,1680.683472 
	C4594.519531,1683.493286 4595.416016,1686.006348 4595.571289,1688.564331 
	C4595.853516,1693.214355 4595.717773,1697.891113 4595.717773,1702.556641 
	C4595.721680,1946.511841 4595.844238,2190.467041 4595.632324,2434.422363 
	C4595.581543,2493.303223 4582.951660,2549.427246 4555.226074,2601.732910 
	C4526.538574,2655.853760 4486.643555,2699.861572 4435.021973,2732.885742 
	C4362.061523,2779.560547 4288.850098,2825.843018 4215.753906,2872.305176 
	C4169.640137,2901.616943 4123.545898,2930.959717 4077.426514,2960.262695 
	C4071.804199,2963.834961 4066.227783,2967.519287 4060.379395,2970.689453 
	C4026.866455,2988.855957 3992.909912,2989.673340 3959.097168,2971.919434 
	C3946.740479,2965.431641 3935.152832,2957.456543 3923.333740,2949.971191 
	C3870.422852,2916.461182 3817.555176,2882.882812 3763.455566,2848.538086 
z"/>
</svg>